%TF.GenerationSoftware,KiCad,Pcbnew,9.0.6*%
%TF.CreationDate,2026-08-31T18:33:46-07:00*%
%TF.ProjectId,Z80 Computer,5a383020-436f-46d7-9075-7465722e6b69,rev?*%
%TF.SameCoordinates,Original*%
%TF.FileFunction,Soldermask,Bot*%
%TF.FilePolarity,Negative*%
%FSLAX46Y46*%
G04 Gerber Fmt 4.6, Leading zero omitted, Abs format (unit mm)*
G04 Created by KiCad (PCBNEW 9.0.6) date 2026-08-31 18:33:46*
%MOMM*%
%LPD*%
G01*
G04 APERTURE LIST*
G04 Aperture macros list*
%AMRoundRect*
0 Rectangle with rounded corners*
0 $1 Rounding radius*
0 $2 $3 $4 $5 $6 $7 $8 $9 X,Y pos of 4 corners*
0 Add a 4 corners polygon primitive as box body*
4,1,4,$2,$3,$4,$5,$6,$7,$8,$9,$2,$3,0*
0 Add four circle primitives for the rounded corners*
1,1,$1+$1,$2,$3*
1,1,$1+$1,$4,$5*
1,1,$1+$1,$6,$7*
1,1,$1+$1,$8,$9*
0 Add four rect primitives between the rounded corners*
20,1,$1+$1,$2,$3,$4,$5,0*
20,1,$1+$1,$4,$5,$6,$7,0*
20,1,$1+$1,$6,$7,$8,$9,0*
20,1,$1+$1,$8,$9,$2,$3,0*%
G04 Aperture macros list end*
%ADD10RoundRect,0.250000X-0.950000X-0.550000X0.950000X-0.550000X0.950000X0.550000X-0.950000X0.550000X0*%
%ADD11O,2.400000X1.600000*%
%ADD12RoundRect,0.250000X0.550000X0.550000X-0.550000X0.550000X-0.550000X-0.550000X0.550000X-0.550000X0*%
%ADD13C,1.600000*%
%ADD14R,1.600000X1.600000*%
%ADD15C,2.000000*%
%ADD16R,1.800000X1.800000*%
%ADD17C,1.800000*%
%ADD18RoundRect,0.250000X-0.600000X-0.600000X0.600000X-0.600000X0.600000X0.600000X-0.600000X0.600000X0*%
%ADD19C,1.700000*%
%ADD20C,0.800000*%
%ADD21C,6.400000*%
%ADD22RoundRect,0.250000X0.550000X-0.550000X0.550000X0.550000X-0.550000X0.550000X-0.550000X-0.550000X0*%
%ADD23RoundRect,0.250000X0.550000X-0.950000X0.550000X0.950000X-0.550000X0.950000X-0.550000X-0.950000X0*%
%ADD24O,1.600000X2.400000*%
%ADD25R,3.500000X3.500000*%
%ADD26RoundRect,0.750000X-1.000000X0.750000X-1.000000X-0.750000X1.000000X-0.750000X1.000000X0.750000X0*%
%ADD27RoundRect,0.875000X-0.875000X0.875000X-0.875000X-0.875000X0.875000X-0.875000X0.875000X0.875000X0*%
%ADD28R,1.524000X2.524000*%
%ADD29O,1.524000X2.524000*%
%ADD30R,1.700000X1.700000*%
%ADD31C,1.620000*%
G04 APERTURE END LIST*
D10*
%TO.C,Y1*%
X85090000Y-238760000D03*
D11*
X85090000Y-241300000D03*
X85090000Y-243840000D03*
X85090000Y-246380000D03*
X92710000Y-246380000D03*
X92710000Y-243840000D03*
X92710000Y-241300000D03*
X92710000Y-238760000D03*
%TD*%
D12*
%TO.C,C1*%
X120300000Y-245110000D03*
D13*
X118300000Y-245110000D03*
%TD*%
D14*
%TO.C,RN4*%
X175260000Y-234950000D03*
D13*
X177800000Y-234950000D03*
X180340000Y-234950000D03*
X182880000Y-234950000D03*
X185420000Y-234950000D03*
X187960000Y-234950000D03*
X190500000Y-234950000D03*
X193040000Y-234950000D03*
X195580000Y-234950000D03*
%TD*%
D15*
%TO.C,SW6*%
X189230000Y-200260000D03*
X195730000Y-200260000D03*
X189230000Y-204760000D03*
X195730000Y-204760000D03*
%TD*%
D16*
%TO.C,A10*%
X111125000Y-134620000D03*
D17*
X111125000Y-137160000D03*
%TD*%
D13*
%TO.C,C5*%
X132080000Y-176530000D03*
X127080000Y-176530000D03*
%TD*%
D16*
%TO.C,D2*%
X146685000Y-148590000D03*
D17*
X146685000Y-151130000D03*
%TD*%
D16*
%TO.C,Reset*%
X81280000Y-134620000D03*
D17*
X81280000Y-137160000D03*
%TD*%
D13*
%TO.C,C4*%
X109180000Y-176530000D03*
X104180000Y-176530000D03*
%TD*%
%TO.C,R1*%
X72390000Y-144780000D03*
X72390000Y-152400000D03*
%TD*%
D14*
%TO.C,RN5*%
X205747500Y-234950000D03*
D13*
X208287500Y-234950000D03*
X210827500Y-234950000D03*
X213367500Y-234950000D03*
X215907500Y-234950000D03*
X218447500Y-234950000D03*
X220987500Y-234950000D03*
X223527500Y-234950000D03*
X226067500Y-234950000D03*
%TD*%
D16*
%TO.C,A4*%
X137795000Y-134620000D03*
D17*
X137795000Y-137160000D03*
%TD*%
D16*
%TO.C,A6*%
X128905000Y-134620000D03*
D17*
X128905000Y-137160000D03*
%TD*%
D10*
%TO.C,U6*%
X121920000Y-180340000D03*
D11*
X121920000Y-182880000D03*
X121920000Y-185420000D03*
X121920000Y-187960000D03*
X121920000Y-190500000D03*
X121920000Y-193040000D03*
X121920000Y-195580000D03*
X121920000Y-198120000D03*
X121920000Y-200660000D03*
X121920000Y-203200000D03*
X121920000Y-205740000D03*
X121920000Y-208280000D03*
X121920000Y-210820000D03*
X121920000Y-213360000D03*
X137160000Y-213360000D03*
X137160000Y-210820000D03*
X137160000Y-208280000D03*
X137160000Y-205740000D03*
X137160000Y-203200000D03*
X137160000Y-200660000D03*
X137160000Y-198120000D03*
X137160000Y-195580000D03*
X137160000Y-193040000D03*
X137160000Y-190500000D03*
X137160000Y-187960000D03*
X137160000Y-185420000D03*
X137160000Y-182880000D03*
X137160000Y-180340000D03*
%TD*%
D16*
%TO.C,A0*%
X155575000Y-134620000D03*
D17*
X155575000Y-137160000D03*
%TD*%
D14*
%TO.C,RN3*%
X170180000Y-134620000D03*
D13*
X170180000Y-137160000D03*
X170180000Y-139700000D03*
X170180000Y-142240000D03*
X170180000Y-144780000D03*
X170180000Y-147320000D03*
X170180000Y-149860000D03*
X170180000Y-152400000D03*
%TD*%
D16*
%TO.C,D1*%
X151130000Y-148590000D03*
D17*
X151130000Y-151130000D03*
%TD*%
D15*
%TO.C,SW4*%
X205180000Y-187270000D03*
X211680000Y-187270000D03*
X205180000Y-191770000D03*
X211680000Y-191770000D03*
%TD*%
D10*
%TO.C,U9*%
X144780000Y-205740000D03*
D11*
X144780000Y-208280000D03*
X144780000Y-210820000D03*
X144780000Y-213360000D03*
X144780000Y-215900000D03*
X144780000Y-218440000D03*
X144780000Y-220980000D03*
X144780000Y-223520000D03*
X152400000Y-223520000D03*
X152400000Y-220980000D03*
X152400000Y-218440000D03*
X152400000Y-215900000D03*
X152400000Y-213360000D03*
X152400000Y-210820000D03*
X152400000Y-208280000D03*
X152400000Y-205740000D03*
%TD*%
D18*
%TO.C,J2*%
X58420000Y-180340000D03*
D19*
X58420000Y-182880000D03*
X58420000Y-185420000D03*
X58420000Y-187960000D03*
X58420000Y-190500000D03*
X58420000Y-193040000D03*
X58420000Y-195580000D03*
X58420000Y-198120000D03*
X58420000Y-200660000D03*
X58420000Y-203200000D03*
X58420000Y-205740000D03*
X58420000Y-208280000D03*
X58420000Y-210820000D03*
X58420000Y-213360000D03*
X58420000Y-215900000D03*
X58420000Y-218440000D03*
X58420000Y-220980000D03*
X58420000Y-223520000D03*
X58420000Y-226060000D03*
X58420000Y-228600000D03*
X60960000Y-228600000D03*
X60960000Y-226060000D03*
X60960000Y-223520000D03*
X60960000Y-220980000D03*
X60960000Y-218440000D03*
X60960000Y-215900000D03*
X60960000Y-213360000D03*
X60960000Y-210820000D03*
X60960000Y-208280000D03*
X60960000Y-205740000D03*
X60960000Y-203200000D03*
X60960000Y-200660000D03*
X60960000Y-198120000D03*
X60960000Y-195580000D03*
X60960000Y-193040000D03*
X60960000Y-190500000D03*
X60960000Y-187960000D03*
X60960000Y-185420000D03*
X60960000Y-182880000D03*
X60960000Y-180340000D03*
%TD*%
D13*
%TO.C,C9*%
X125095000Y-161290000D03*
X125095000Y-166290000D03*
%TD*%
%TO.C,C10*%
X89535000Y-161290000D03*
X89535000Y-166290000D03*
%TD*%
%TO.C,C8*%
X200660000Y-161290000D03*
X200660000Y-166290000D03*
%TD*%
D20*
%TO.C,H2*%
X44590000Y-130810000D03*
X45292944Y-129112944D03*
X45292944Y-132507056D03*
X46990000Y-128410000D03*
D21*
X46990000Y-130810000D03*
D20*
X46990000Y-133210000D03*
X48687056Y-129112944D03*
X48687056Y-132507056D03*
X49390000Y-130810000D03*
%TD*%
D13*
%TO.C,R4*%
X76835000Y-152400000D03*
X76835000Y-144780000D03*
%TD*%
%TO.C,C3*%
X71120000Y-204470000D03*
X71120000Y-209470000D03*
%TD*%
D15*
%TO.C,SW5*%
X173280000Y-200260000D03*
X179780000Y-200260000D03*
X173280000Y-204760000D03*
X179780000Y-204760000D03*
%TD*%
D16*
%TO.C,D5*%
X133350000Y-148590000D03*
D17*
X133350000Y-151130000D03*
%TD*%
D22*
%TO.C,SW9*%
X176537500Y-246337500D03*
D13*
X179077500Y-246337500D03*
X181617500Y-246337500D03*
X184157500Y-246337500D03*
X186697500Y-246337500D03*
X189237500Y-246337500D03*
X191777500Y-246337500D03*
X194317500Y-246337500D03*
X194317500Y-238717500D03*
X191777500Y-238717500D03*
X189237500Y-238717500D03*
X186697500Y-238717500D03*
X184157500Y-238717500D03*
X181617500Y-238717500D03*
X179077500Y-238717500D03*
X176537500Y-238717500D03*
%TD*%
D16*
%TO.C,A3*%
X142240000Y-134620000D03*
D17*
X142240000Y-137160000D03*
%TD*%
D23*
%TO.C,U11*%
X173990000Y-231140000D03*
D24*
X176530000Y-231140000D03*
X179070000Y-231140000D03*
X181610000Y-231140000D03*
X184150000Y-231140000D03*
X186690000Y-231140000D03*
X189230000Y-231140000D03*
X191770000Y-231140000D03*
X194310000Y-231140000D03*
X196850000Y-231140000D03*
X196850000Y-223520000D03*
X194310000Y-223520000D03*
X191770000Y-223520000D03*
X189230000Y-223520000D03*
X186690000Y-223520000D03*
X184150000Y-223520000D03*
X181610000Y-223520000D03*
X179070000Y-223520000D03*
X176530000Y-223520000D03*
X173990000Y-223520000D03*
%TD*%
D16*
%TO.C,D7*%
X124460000Y-148590000D03*
D17*
X124460000Y-151130000D03*
%TD*%
D14*
%TO.C,RN9*%
X52070000Y-208280000D03*
D13*
X52070000Y-210820000D03*
X52070000Y-213360000D03*
X52070000Y-215900000D03*
X52070000Y-218440000D03*
X52070000Y-220980000D03*
X52070000Y-223520000D03*
X52070000Y-226060000D03*
X52070000Y-228600000D03*
%TD*%
D22*
%TO.C,SW1*%
X223532500Y-199347500D03*
D13*
X226072500Y-199347500D03*
X226072500Y-191727500D03*
X223532500Y-191727500D03*
%TD*%
D22*
%TO.C,SW10*%
X207025000Y-246337500D03*
D13*
X209565000Y-246337500D03*
X212105000Y-246337500D03*
X214645000Y-246337500D03*
X217185000Y-246337500D03*
X219725000Y-246337500D03*
X222265000Y-246337500D03*
X224805000Y-246337500D03*
X224805000Y-238717500D03*
X222265000Y-238717500D03*
X219725000Y-238717500D03*
X217185000Y-238717500D03*
X214645000Y-238717500D03*
X212105000Y-238717500D03*
X209565000Y-238717500D03*
X207025000Y-238717500D03*
%TD*%
D25*
%TO.C,J1*%
X60647500Y-139985000D03*
D26*
X60647500Y-133985000D03*
D27*
X55947500Y-136985000D03*
%TD*%
D13*
%TO.C,C7*%
X170180000Y-224790000D03*
X170180000Y-229790000D03*
%TD*%
D10*
%TO.C,U5*%
X144780000Y-180340000D03*
D11*
X144780000Y-182880000D03*
X144780000Y-185420000D03*
X144780000Y-187960000D03*
X144780000Y-190500000D03*
X144780000Y-193040000D03*
X144780000Y-195580000D03*
X144780000Y-198120000D03*
X152400000Y-198120000D03*
X152400000Y-195580000D03*
X152400000Y-193040000D03*
X152400000Y-190500000D03*
X152400000Y-187960000D03*
X152400000Y-185420000D03*
X152400000Y-182880000D03*
X152400000Y-180340000D03*
%TD*%
D14*
%TO.C,RN1*%
X204470000Y-171450000D03*
D13*
X207010000Y-171450000D03*
X209550000Y-171450000D03*
X212090000Y-171450000D03*
X214630000Y-171450000D03*
X217170000Y-171450000D03*
X219710000Y-171450000D03*
X222250000Y-171450000D03*
X224790000Y-171450000D03*
%TD*%
D14*
%TO.C,RN7*%
X94615000Y-130810000D03*
D13*
X97155000Y-130810000D03*
X99695000Y-130810000D03*
X102235000Y-130810000D03*
X104775000Y-130810000D03*
X107315000Y-130810000D03*
X109855000Y-130810000D03*
X112395000Y-130810000D03*
X114935000Y-130810000D03*
%TD*%
D23*
%TO.C,U17*%
X128905000Y-167640000D03*
D24*
X131445000Y-167640000D03*
X133985000Y-167640000D03*
X136525000Y-167640000D03*
X139065000Y-167640000D03*
X141605000Y-167640000D03*
X144145000Y-167640000D03*
X146685000Y-167640000D03*
X149225000Y-167640000D03*
X151765000Y-167640000D03*
X151765000Y-160020000D03*
X149225000Y-160020000D03*
X146685000Y-160020000D03*
X144145000Y-160020000D03*
X141605000Y-160020000D03*
X139065000Y-160020000D03*
X136525000Y-160020000D03*
X133985000Y-160020000D03*
X131445000Y-160020000D03*
X128905000Y-160020000D03*
%TD*%
D23*
%TO.C,U16*%
X93345000Y-152400000D03*
D24*
X95885000Y-152400000D03*
X98425000Y-152400000D03*
X100965000Y-152400000D03*
X103505000Y-152400000D03*
X106045000Y-152400000D03*
X108585000Y-152400000D03*
X111125000Y-152400000D03*
X113665000Y-152400000D03*
X116205000Y-152400000D03*
X116205000Y-144780000D03*
X113665000Y-144780000D03*
X111125000Y-144780000D03*
X108585000Y-144780000D03*
X106045000Y-144780000D03*
X103505000Y-144780000D03*
X100965000Y-144780000D03*
X98425000Y-144780000D03*
X95885000Y-144780000D03*
X93345000Y-144780000D03*
%TD*%
D28*
%TO.C,U7*%
X179070000Y-151130000D03*
D29*
X181610000Y-151130000D03*
X184150000Y-151130000D03*
X186690000Y-151130000D03*
X189230000Y-151130000D03*
X189230000Y-135890000D03*
X186690000Y-135890000D03*
X184150000Y-135890000D03*
X181610000Y-135890000D03*
X179070000Y-135890000D03*
%TD*%
D20*
%TO.C,H3*%
X233820000Y-246380000D03*
X234522944Y-244682944D03*
X234522944Y-248077056D03*
X236220000Y-243980000D03*
D21*
X236220000Y-246380000D03*
D20*
X236220000Y-248780000D03*
X237917056Y-244682944D03*
X237917056Y-248077056D03*
X238620000Y-246380000D03*
%TD*%
D14*
%TO.C,RN2*%
X173990000Y-134620000D03*
D13*
X173990000Y-137160000D03*
X173990000Y-139700000D03*
X173990000Y-142240000D03*
X173990000Y-144780000D03*
X173990000Y-147320000D03*
X173990000Y-149860000D03*
X173990000Y-152400000D03*
%TD*%
D23*
%TO.C,U15*%
X93345000Y-167640000D03*
D24*
X95885000Y-167640000D03*
X98425000Y-167640000D03*
X100965000Y-167640000D03*
X103505000Y-167640000D03*
X106045000Y-167640000D03*
X108585000Y-167640000D03*
X111125000Y-167640000D03*
X113665000Y-167640000D03*
X116205000Y-167640000D03*
X116205000Y-160020000D03*
X113665000Y-160020000D03*
X111125000Y-160020000D03*
X108585000Y-160020000D03*
X106045000Y-160020000D03*
X103505000Y-160020000D03*
X100965000Y-160020000D03*
X98425000Y-160020000D03*
X95885000Y-160020000D03*
X93345000Y-160020000D03*
%TD*%
D12*
%TO.C,C15*%
X61455113Y-146000000D03*
D13*
X59455113Y-146000000D03*
%TD*%
D15*
%TO.C,SW2*%
X173280000Y-187270000D03*
X179780000Y-187270000D03*
X173280000Y-191770000D03*
X179780000Y-191770000D03*
%TD*%
D13*
%TO.C,C17*%
X89535000Y-146050000D03*
X89535000Y-151050000D03*
%TD*%
D28*
%TO.C,U12*%
X204470000Y-151130000D03*
D29*
X207010000Y-151130000D03*
X209550000Y-151130000D03*
X212090000Y-151130000D03*
X214630000Y-151130000D03*
X214630000Y-135890000D03*
X212090000Y-135890000D03*
X209550000Y-135890000D03*
X207010000Y-135890000D03*
X204470000Y-135890000D03*
%TD*%
D16*
%TO.C,A2*%
X146685000Y-134620000D03*
D17*
X146685000Y-137160000D03*
%TD*%
D16*
%TO.C,A8*%
X120015000Y-134620000D03*
D17*
X120015000Y-137160000D03*
%TD*%
D20*
%TO.C,H4*%
X44590000Y-246380000D03*
X45292944Y-244682944D03*
X45292944Y-248077056D03*
X46990000Y-243980000D03*
D21*
X46990000Y-246380000D03*
D20*
X46990000Y-248780000D03*
X48687056Y-244682944D03*
X48687056Y-248077056D03*
X49390000Y-246380000D03*
%TD*%
D13*
%TO.C,R5*%
X72390000Y-238760000D03*
X72390000Y-246380000D03*
%TD*%
D15*
%TO.C,SW3*%
X189230000Y-187270000D03*
X195730000Y-187270000D03*
X189230000Y-191770000D03*
X195730000Y-191770000D03*
%TD*%
D16*
%TO.C,A12*%
X102235000Y-134620000D03*
D17*
X102235000Y-137160000D03*
%TD*%
D16*
%TO.C,D3*%
X142240000Y-148590000D03*
D17*
X142240000Y-151130000D03*
%TD*%
D13*
%TO.C,R2*%
X124150000Y-246380000D03*
X124150000Y-238760000D03*
%TD*%
D23*
%TO.C,U14*%
X204470000Y-231140000D03*
D24*
X207010000Y-231140000D03*
X209550000Y-231140000D03*
X212090000Y-231140000D03*
X214630000Y-231140000D03*
X217170000Y-231140000D03*
X219710000Y-231140000D03*
X222250000Y-231140000D03*
X224790000Y-231140000D03*
X227330000Y-231140000D03*
X227330000Y-223520000D03*
X224790000Y-223520000D03*
X222250000Y-223520000D03*
X219710000Y-223520000D03*
X217170000Y-223520000D03*
X214630000Y-223520000D03*
X212090000Y-223520000D03*
X209550000Y-223520000D03*
X207010000Y-223520000D03*
X204470000Y-223520000D03*
%TD*%
D13*
%TO.C,C13*%
X151130000Y-176530000D03*
X146130000Y-176530000D03*
%TD*%
D16*
%TO.C,A1*%
X151130000Y-134620000D03*
D17*
X151130000Y-137160000D03*
%TD*%
D20*
%TO.C,H1*%
X233820000Y-130810000D03*
X234522944Y-129112944D03*
X234522944Y-132507056D03*
X236220000Y-128410000D03*
D21*
X236220000Y-130810000D03*
D20*
X236220000Y-133210000D03*
X237917056Y-129112944D03*
X237917056Y-132507056D03*
X238620000Y-130810000D03*
%TD*%
D30*
%TO.C,JP1*%
X78740000Y-241300000D03*
D19*
X78740000Y-243840000D03*
X78740000Y-246380000D03*
%TD*%
D16*
%TO.C,D0*%
X155575000Y-148590000D03*
D17*
X155575000Y-151130000D03*
%TD*%
D13*
%TO.C,C6*%
X200660000Y-224790000D03*
X200660000Y-229790000D03*
%TD*%
D10*
%TO.C,U3*%
X76200000Y-180340000D03*
D11*
X76200000Y-182880000D03*
X76200000Y-185420000D03*
X76200000Y-187960000D03*
X76200000Y-190500000D03*
X76200000Y-193040000D03*
X76200000Y-195580000D03*
X76200000Y-198120000D03*
X76200000Y-200660000D03*
X76200000Y-203200000D03*
X76200000Y-205740000D03*
X76200000Y-208280000D03*
X76200000Y-210820000D03*
X76200000Y-213360000D03*
X76200000Y-215900000D03*
X76200000Y-218440000D03*
X76200000Y-220980000D03*
X76200000Y-223520000D03*
X76200000Y-226060000D03*
X76200000Y-228600000D03*
X91440000Y-228600000D03*
X91440000Y-226060000D03*
X91440000Y-223520000D03*
X91440000Y-220980000D03*
X91440000Y-218440000D03*
X91440000Y-215900000D03*
X91440000Y-213360000D03*
X91440000Y-210820000D03*
X91440000Y-208280000D03*
X91440000Y-205740000D03*
X91440000Y-203200000D03*
X91440000Y-200660000D03*
X91440000Y-198120000D03*
X91440000Y-195580000D03*
X91440000Y-193040000D03*
X91440000Y-190500000D03*
X91440000Y-187960000D03*
X91440000Y-185420000D03*
X91440000Y-182880000D03*
X91440000Y-180340000D03*
%TD*%
D16*
%TO.C,Halt*%
X76835000Y-134620000D03*
D17*
X76835000Y-137160000D03*
%TD*%
D16*
%TO.C,Power*%
X72390000Y-134620000D03*
D17*
X72390000Y-137160000D03*
%TD*%
D12*
%TO.C,C2*%
X113950000Y-245110000D03*
D13*
X111950000Y-245110000D03*
%TD*%
D16*
%TO.C,D6*%
X128905000Y-148590000D03*
D17*
X128905000Y-151130000D03*
%TD*%
D13*
%TO.C,R3*%
X81280000Y-144780000D03*
X81280000Y-152400000D03*
%TD*%
D28*
%TO.C,U10*%
X191770000Y-151130000D03*
D29*
X194310000Y-151130000D03*
X196850000Y-151130000D03*
X199390000Y-151130000D03*
X201930000Y-151130000D03*
X201930000Y-135890000D03*
X199390000Y-135890000D03*
X196850000Y-135890000D03*
X194310000Y-135890000D03*
X191770000Y-135890000D03*
%TD*%
D16*
%TO.C,A11*%
X106680000Y-134620000D03*
D17*
X106680000Y-137160000D03*
%TD*%
D10*
%TO.C,U1*%
X98750000Y-238760000D03*
D11*
X98750000Y-241300000D03*
X98750000Y-243840000D03*
X98750000Y-246380000D03*
X106370000Y-246380000D03*
X106370000Y-243840000D03*
X106370000Y-241300000D03*
X106370000Y-238760000D03*
%TD*%
D31*
%TO.C,50K Pot.*%
X128000000Y-241300000D03*
X130500000Y-246300000D03*
X133000000Y-241300000D03*
%TD*%
D16*
%TO.C,D4*%
X137795000Y-148590000D03*
D17*
X137795000Y-151130000D03*
%TD*%
D16*
%TO.C,A5*%
X133350000Y-134620000D03*
D17*
X133350000Y-137160000D03*
%TD*%
D13*
%TO.C,C12*%
X105100000Y-234950000D03*
X100100000Y-234950000D03*
%TD*%
D16*
%TO.C,A13*%
X97790000Y-134620000D03*
D17*
X97790000Y-137160000D03*
%TD*%
D16*
%TO.C,A14*%
X93345000Y-134620000D03*
D17*
X93345000Y-137160000D03*
%TD*%
D16*
%TO.C,A15*%
X88900000Y-134620000D03*
D17*
X88900000Y-137160000D03*
%TD*%
D16*
%TO.C,A7*%
X124460000Y-134620000D03*
D17*
X124460000Y-137160000D03*
%TD*%
D14*
%TO.C,RN6*%
X130175000Y-130810000D03*
D13*
X132715000Y-130810000D03*
X135255000Y-130810000D03*
X137795000Y-130810000D03*
X140335000Y-130810000D03*
X142875000Y-130810000D03*
X145415000Y-130810000D03*
X147955000Y-130810000D03*
X150495000Y-130810000D03*
%TD*%
%TO.C,C11*%
X170180000Y-161330000D03*
X170180000Y-166330000D03*
%TD*%
D12*
%TO.C,C16*%
X68500000Y-243840000D03*
D13*
X66500000Y-243840000D03*
%TD*%
D23*
%TO.C,U2*%
X173990000Y-167640000D03*
D24*
X176530000Y-167640000D03*
X179070000Y-167640000D03*
X181610000Y-167640000D03*
X184150000Y-167640000D03*
X186690000Y-167640000D03*
X189230000Y-167640000D03*
X191770000Y-167640000D03*
X194310000Y-167640000D03*
X196850000Y-167640000D03*
X196850000Y-160020000D03*
X194310000Y-160020000D03*
X191770000Y-160020000D03*
X189230000Y-160020000D03*
X186690000Y-160020000D03*
X184150000Y-160020000D03*
X181610000Y-160020000D03*
X179070000Y-160020000D03*
X176530000Y-160020000D03*
X173990000Y-160020000D03*
%TD*%
D15*
%TO.C,SW7*%
X205180000Y-200260000D03*
X211680000Y-200260000D03*
X205180000Y-204760000D03*
X211680000Y-204760000D03*
%TD*%
D14*
%TO.C,RN8*%
X130175000Y-144780000D03*
D13*
X132715000Y-144780000D03*
X135255000Y-144780000D03*
X137795000Y-144780000D03*
X140335000Y-144780000D03*
X142875000Y-144780000D03*
X145415000Y-144780000D03*
X147955000Y-144780000D03*
X150495000Y-144780000D03*
%TD*%
%TO.C,C14*%
X151130000Y-201930000D03*
X146130000Y-201930000D03*
%TD*%
D15*
%TO.C,SW8*%
X56440000Y-241590000D03*
X62940000Y-241590000D03*
X56440000Y-246090000D03*
X62940000Y-246090000D03*
%TD*%
D28*
%TO.C,U13*%
X217170000Y-151130000D03*
D29*
X219710000Y-151130000D03*
X222250000Y-151130000D03*
X224790000Y-151130000D03*
X227330000Y-151130000D03*
X227330000Y-135890000D03*
X224790000Y-135890000D03*
X222250000Y-135890000D03*
X219710000Y-135890000D03*
X217170000Y-135890000D03*
%TD*%
D16*
%TO.C,A9*%
X115570000Y-134620000D03*
D17*
X115570000Y-137160000D03*
%TD*%
D10*
%TO.C,U8*%
X99060000Y-180340000D03*
D11*
X99060000Y-182880000D03*
X99060000Y-185420000D03*
X99060000Y-187960000D03*
X99060000Y-190500000D03*
X99060000Y-193040000D03*
X99060000Y-195580000D03*
X99060000Y-198120000D03*
X99060000Y-200660000D03*
X99060000Y-203200000D03*
X99060000Y-205740000D03*
X99060000Y-208280000D03*
X99060000Y-210820000D03*
X99060000Y-213360000D03*
X114300000Y-213360000D03*
X114300000Y-210820000D03*
X114300000Y-208280000D03*
X114300000Y-205740000D03*
X114300000Y-203200000D03*
X114300000Y-200660000D03*
X114300000Y-198120000D03*
X114300000Y-195580000D03*
X114300000Y-193040000D03*
X114300000Y-190500000D03*
X114300000Y-187960000D03*
X114300000Y-185420000D03*
X114300000Y-182880000D03*
X114300000Y-180340000D03*
%TD*%
D23*
%TO.C,U4*%
X204470000Y-167640000D03*
D24*
X207010000Y-167640000D03*
X209550000Y-167640000D03*
X212090000Y-167640000D03*
X214630000Y-167640000D03*
X217170000Y-167640000D03*
X219710000Y-167640000D03*
X222250000Y-167640000D03*
X224790000Y-167640000D03*
X227330000Y-167640000D03*
X227330000Y-160020000D03*
X224790000Y-160020000D03*
X222250000Y-160020000D03*
X219710000Y-160020000D03*
X217170000Y-160020000D03*
X214630000Y-160020000D03*
X212090000Y-160020000D03*
X209550000Y-160020000D03*
X207010000Y-160020000D03*
X204470000Y-160020000D03*
%TD*%
M02*
