M48
; DRILL file {KiCad 9.0.6} date 2026-08-31T18:33:49-0700
; FORMAT={-:-/ absolute / metric / decimal}
; #@! TF.CreationDate,2026-08-31T18:33:49-07:00
; #@! TF.GenerationSoftware,Kicad,Pcbnew,9.0.6
; #@! TF.FileFunction,Plated,1,2,PTH
FMAT,2
METRIC
; #@! TA.AperFunction,Plated,PTH,ViaDrill
T1C0.300
; #@! TA.AperFunction,Plated,PTH,ComponentDrill
T2C0.500
; #@! TA.AperFunction,Plated,PTH,ComponentDrill
T3C0.800
; #@! TA.AperFunction,Plated,PTH,ComponentDrill
T4C0.900
; #@! TA.AperFunction,Plated,PTH,ComponentDrill
T5C1.000
; #@! TA.AperFunction,Plated,PTH,ComponentDrill
T6C1.100
; #@! TA.AperFunction,Plated,PTH,ComponentDrill
T7C3.200
%
G90
G05
T1
X54.0Y-206.5
X54.0Y-223.0
X58.5Y-178.0
X66.0Y-230.0
X75.0Y-231.0
X78.105Y-213.36
X78.105Y-234.95
X78.74Y-215.9
X78.74Y-234.315
X79.375Y-208.28
X79.375Y-218.44
X79.375Y-233.68
X80.01Y-198.12
X80.01Y-233.045
X80.645Y-195.58
X80.645Y-232.41
X81.28Y-200.66
X81.28Y-231.775
X81.915Y-203.2
X81.915Y-231.14
X82.5Y-241.5
X82.5Y-244.0
X82.55Y-209.719
X82.55Y-230.505
X83.5Y-208.5
X90.0Y-244.0
X93.345Y-177.8
X93.345Y-189.23
X93.345Y-217.805
X93.98Y-186.69
X93.98Y-218.44
X94.0Y-220.5
X94.5Y-229.5
X94.5Y-245.0
X94.615Y-219.075
X95.25Y-184.15
X96.0Y-156.0
X96.0Y-164.0
X96.5Y-241.5
X101.0Y-243.5
X102.235Y-180.34
X102.235Y-198.12
X102.87Y-179.705
X102.87Y-193.04
X103.505Y-182.88
X103.505Y-190.5
X104.14Y-179.705
X104.14Y-187.96
X104.5Y-242.5
X109.0Y-242.5
X109.22Y-181.779
X109.5Y-240.0
X109.855Y-193.04
X109.855Y-226.06
X110.49Y-198.12
X110.49Y-228.6
X111.125Y-190.5
X111.125Y-231.14
X111.76Y-187.96
X111.76Y-231.775
X112.395Y-232.41
X113.03Y-233.045
X114.0Y-177.0
X114.5Y-222.0
X114.5Y-226.0
X115.0Y-229.5
X116.205Y-173.355
X116.205Y-186.859
X116.84Y-172.72
X116.84Y-189.23
X117.0Y-213.0
X117.475Y-172.085
X117.475Y-191.939
X117.5Y-142.5
X118.0Y-216.5
X118.11Y-171.45
X118.11Y-194.479
X118.745Y-170.815
X118.745Y-197.019
X119.38Y-170.18
X119.38Y-199.559
X120.015Y-169.545
X120.015Y-202.099
X120.65Y-173.99
X122.5Y-246.5
X123.825Y-205.74
X124.46Y-208.28
X125.095Y-210.82
X126.5Y-135.5
X126.5Y-245.5
X131.0Y-137.0
X133.5Y-163.0
X134.5Y-213.5
X135.5Y-137.0
X139.0Y-196.5
X139.5Y-138.0
X139.5Y-203.5
X140.335Y-219.075
X140.97Y-218.44
X141.0Y-223.5
X141.0Y-226.0
X141.605Y-217.805
X142.24Y-224.79
X142.875Y-227.33
X143.5Y-138.5
X148.0Y-138.5
X149.0Y-195.0
X150.0Y-217.5
X152.5Y-138.5
X155.0Y-207.5
X155.0Y-219.5
X163.195Y-138.43
X163.195Y-152.4
X163.83Y-135.255
X163.83Y-153.67
X164.465Y-149.86
X164.465Y-152.4
X165.0Y-137.0
X165.0Y-141.0
X165.1Y-143.51
X165.1Y-153.67
X165.735Y-148.59
X165.735Y-152.4
X166.37Y-134.62
X166.37Y-153.67
X167.005Y-139.7
X167.005Y-152.4
X167.64Y-144.78
X167.64Y-153.67
X168.5Y-137.0
X168.5Y-141.0
X168.5Y-151.0
X175.5Y-233.0
X176.0Y-242.5
X176.5Y-190.0
X177.0Y-202.5
X178.0Y-163.5
X179.07Y-142.24
X179.07Y-148.59
X179.07Y-220.98
X180.0Y-217.0
X181.0Y-144.5
X181.61Y-140.97
X181.61Y-147.32
X181.61Y-220.345
X184.15Y-219.71
X185.42Y-212.09
X186.69Y-139.7
X186.69Y-146.05
X186.69Y-219.075
X189.23Y-138.43
X189.23Y-144.78
X189.23Y-218.44
X189.865Y-212.725
X191.77Y-142.24
X191.77Y-148.59
X191.77Y-217.805
X192.5Y-190.0
X193.0Y-203.0
X194.31Y-140.97
X194.31Y-147.32
X194.31Y-217.17
X196.85Y-216.535
X199.39Y-139.7
X199.39Y-146.05
X200.5Y-159.0
X201.93Y-138.43
X201.93Y-144.78
X204.47Y-142.24
X204.47Y-148.59
X205.0Y-175.5
X205.0Y-184.5
X206.0Y-227.5
X206.0Y-233.0
X206.5Y-241.5
X207.01Y-140.97
X207.01Y-147.32
X207.01Y-214.63
X207.645Y-188.396
X208.28Y-213.36
X208.915Y-188.595
X209.5Y-215.5
X209.55Y-191.77
X212.09Y-139.7
X212.09Y-146.05
X213.0Y-174.0
X214.5Y-203.5
X214.63Y-138.43
X214.63Y-144.78
X217.17Y-142.24
X217.17Y-148.59
X217.626Y-201.33
X219.075Y-201.295
X219.71Y-140.97
X219.71Y-147.32
X220.211Y-201.295
X220.811Y-213.826
X222.5Y-154.5
X224.5Y-142.5
X224.79Y-139.7
X224.79Y-146.05
X227.33Y-138.43
X227.33Y-144.78
T2
X44.59Y-130.81
X44.59Y-246.38
X45.293Y-129.113
X45.293Y-132.507
X45.293Y-244.683
X45.293Y-248.077
X46.99Y-128.41
X46.99Y-133.21
X46.99Y-243.98
X46.99Y-248.78
X48.687Y-129.113
X48.687Y-132.507
X48.687Y-244.683
X48.687Y-248.077
X49.39Y-130.81
X49.39Y-246.38
X233.82Y-130.81
X233.82Y-246.38
X234.523Y-129.113
X234.523Y-132.507
X234.523Y-244.683
X234.523Y-248.077
X236.22Y-128.41
X236.22Y-133.21
X236.22Y-243.98
X236.22Y-248.78
X237.917Y-129.113
X237.917Y-132.507
X237.917Y-244.683
X237.917Y-248.077
X238.62Y-130.81
X238.62Y-246.38
T3
X52.07Y-208.28
X52.07Y-210.82
X52.07Y-213.36
X52.07Y-215.9
X52.07Y-218.44
X52.07Y-220.98
X52.07Y-223.52
X52.07Y-226.06
X52.07Y-228.6
X59.455Y-146.0
X61.455Y-146.0
X66.5Y-243.84
X68.5Y-243.84
X71.12Y-204.47
X71.12Y-209.47
X72.39Y-144.78
X72.39Y-152.4
X72.39Y-238.76
X72.39Y-246.38
X76.2Y-180.34
X76.2Y-182.88
X76.2Y-185.42
X76.2Y-187.96
X76.2Y-190.5
X76.2Y-193.04
X76.2Y-195.58
X76.2Y-198.12
X76.2Y-200.66
X76.2Y-203.2
X76.2Y-205.74
X76.2Y-208.28
X76.2Y-210.82
X76.2Y-213.36
X76.2Y-215.9
X76.2Y-218.44
X76.2Y-220.98
X76.2Y-223.52
X76.2Y-226.06
X76.2Y-228.6
X76.835Y-144.78
X76.835Y-152.4
X81.28Y-144.78
X81.28Y-152.4
X85.09Y-238.76
X85.09Y-241.3
X85.09Y-243.84
X85.09Y-246.38
X89.535Y-146.05
X89.535Y-151.05
X89.535Y-161.29
X89.535Y-166.29
X91.44Y-180.34
X91.44Y-182.88
X91.44Y-185.42
X91.44Y-187.96
X91.44Y-190.5
X91.44Y-193.04
X91.44Y-195.58
X91.44Y-198.12
X91.44Y-200.66
X91.44Y-203.2
X91.44Y-205.74
X91.44Y-208.28
X91.44Y-210.82
X91.44Y-213.36
X91.44Y-215.9
X91.44Y-218.44
X91.44Y-220.98
X91.44Y-223.52
X91.44Y-226.06
X91.44Y-228.6
X92.71Y-238.76
X92.71Y-241.3
X92.71Y-243.84
X92.71Y-246.38
X93.345Y-144.78
X93.345Y-152.4
X93.345Y-160.02
X93.345Y-167.64
X94.615Y-130.81
X95.885Y-144.78
X95.885Y-152.4
X95.885Y-160.02
X95.885Y-167.64
X97.155Y-130.81
X98.425Y-144.78
X98.425Y-152.4
X98.425Y-160.02
X98.425Y-167.64
X98.75Y-238.76
X98.75Y-241.3
X98.75Y-243.84
X98.75Y-246.38
X99.06Y-180.34
X99.06Y-182.88
X99.06Y-185.42
X99.06Y-187.96
X99.06Y-190.5
X99.06Y-193.04
X99.06Y-195.58
X99.06Y-198.12
X99.06Y-200.66
X99.06Y-203.2
X99.06Y-205.74
X99.06Y-208.28
X99.06Y-210.82
X99.06Y-213.36
X99.695Y-130.81
X100.1Y-234.95
X100.965Y-144.78
X100.965Y-152.4
X100.965Y-160.02
X100.965Y-167.64
X102.235Y-130.81
X103.505Y-144.78
X103.505Y-152.4
X103.505Y-160.02
X103.505Y-167.64
X104.18Y-176.53
X104.775Y-130.81
X105.1Y-234.95
X106.045Y-144.78
X106.045Y-152.4
X106.045Y-160.02
X106.045Y-167.64
X106.37Y-238.76
X106.37Y-241.3
X106.37Y-243.84
X106.37Y-246.38
X107.315Y-130.81
X108.585Y-144.78
X108.585Y-152.4
X108.585Y-160.02
X108.585Y-167.64
X109.18Y-176.53
X109.855Y-130.81
X111.125Y-144.78
X111.125Y-152.4
X111.125Y-160.02
X111.125Y-167.64
X111.95Y-245.11
X112.395Y-130.81
X113.665Y-144.78
X113.665Y-152.4
X113.665Y-160.02
X113.665Y-167.64
X113.95Y-245.11
X114.3Y-180.34
X114.3Y-182.88
X114.3Y-185.42
X114.3Y-187.96
X114.3Y-190.5
X114.3Y-193.04
X114.3Y-195.58
X114.3Y-198.12
X114.3Y-200.66
X114.3Y-203.2
X114.3Y-205.74
X114.3Y-208.28
X114.3Y-210.82
X114.3Y-213.36
X114.935Y-130.81
X116.205Y-144.78
X116.205Y-152.4
X116.205Y-160.02
X116.205Y-167.64
X118.3Y-245.11
X120.3Y-245.11
X121.92Y-180.34
X121.92Y-182.88
X121.92Y-185.42
X121.92Y-187.96
X121.92Y-190.5
X121.92Y-193.04
X121.92Y-195.58
X121.92Y-198.12
X121.92Y-200.66
X121.92Y-203.2
X121.92Y-205.74
X121.92Y-208.28
X121.92Y-210.82
X121.92Y-213.36
X124.15Y-238.76
X124.15Y-246.38
X125.095Y-161.29
X125.095Y-166.29
X127.08Y-176.53
X128.905Y-160.02
X128.905Y-167.64
X130.175Y-130.81
X130.175Y-144.78
X131.445Y-160.02
X131.445Y-167.64
X132.08Y-176.53
X132.715Y-130.81
X132.715Y-144.78
X133.985Y-160.02
X133.985Y-167.64
X135.255Y-130.81
X135.255Y-144.78
X136.525Y-160.02
X136.525Y-167.64
X137.16Y-180.34
X137.16Y-182.88
X137.16Y-185.42
X137.16Y-187.96
X137.16Y-190.5
X137.16Y-193.04
X137.16Y-195.58
X137.16Y-198.12
X137.16Y-200.66
X137.16Y-203.2
X137.16Y-205.74
X137.16Y-208.28
X137.16Y-210.82
X137.16Y-213.36
X137.795Y-130.81
X137.795Y-144.78
X139.065Y-160.02
X139.065Y-167.64
X140.335Y-130.81
X140.335Y-144.78
X141.605Y-160.02
X141.605Y-167.64
X142.875Y-130.81
X142.875Y-144.78
X144.145Y-160.02
X144.145Y-167.64
X144.78Y-180.34
X144.78Y-182.88
X144.78Y-185.42
X144.78Y-187.96
X144.78Y-190.5
X144.78Y-193.04
X144.78Y-195.58
X144.78Y-198.12
X144.78Y-205.74
X144.78Y-208.28
X144.78Y-210.82
X144.78Y-213.36
X144.78Y-215.9
X144.78Y-218.44
X144.78Y-220.98
X144.78Y-223.52
X145.415Y-130.81
X145.415Y-144.78
X146.13Y-176.53
X146.13Y-201.93
X146.685Y-160.02
X146.685Y-167.64
X147.955Y-130.81
X147.955Y-144.78
X149.225Y-160.02
X149.225Y-167.64
X150.495Y-130.81
X150.495Y-144.78
X151.13Y-176.53
X151.13Y-201.93
X151.765Y-160.02
X151.765Y-167.64
X152.4Y-180.34
X152.4Y-182.88
X152.4Y-185.42
X152.4Y-187.96
X152.4Y-190.5
X152.4Y-193.04
X152.4Y-195.58
X152.4Y-198.12
X152.4Y-205.74
X152.4Y-208.28
X152.4Y-210.82
X152.4Y-213.36
X152.4Y-215.9
X152.4Y-218.44
X152.4Y-220.98
X152.4Y-223.52
X170.18Y-134.62
X170.18Y-137.16
X170.18Y-139.7
X170.18Y-142.24
X170.18Y-144.78
X170.18Y-147.32
X170.18Y-149.86
X170.18Y-152.4
X170.18Y-161.33
X170.18Y-166.33
X170.18Y-224.79
X170.18Y-229.79
X173.99Y-134.62
X173.99Y-137.16
X173.99Y-139.7
X173.99Y-142.24
X173.99Y-144.78
X173.99Y-147.32
X173.99Y-149.86
X173.99Y-152.4
X173.99Y-160.02
X173.99Y-167.64
X173.99Y-223.52
X173.99Y-231.14
X175.26Y-234.95
X176.53Y-160.02
X176.53Y-167.64
X176.53Y-223.52
X176.53Y-231.14
X176.537Y-238.718
X176.537Y-246.337
X177.8Y-234.95
X179.07Y-135.89
X179.07Y-151.13
X179.07Y-160.02
X179.07Y-167.64
X179.07Y-223.52
X179.07Y-231.14
X179.077Y-238.718
X179.077Y-246.337
X180.34Y-234.95
X181.61Y-135.89
X181.61Y-151.13
X181.61Y-160.02
X181.61Y-167.64
X181.61Y-223.52
X181.61Y-231.14
X181.617Y-238.718
X181.617Y-246.337
X182.88Y-234.95
X184.15Y-135.89
X184.15Y-151.13
X184.15Y-160.02
X184.15Y-167.64
X184.15Y-223.52
X184.15Y-231.14
X184.157Y-238.718
X184.157Y-246.337
X185.42Y-234.95
X186.69Y-135.89
X186.69Y-151.13
X186.69Y-160.02
X186.69Y-167.64
X186.69Y-223.52
X186.69Y-231.14
X186.697Y-238.718
X186.697Y-246.337
X187.96Y-234.95
X189.23Y-135.89
X189.23Y-151.13
X189.23Y-160.02
X189.23Y-167.64
X189.23Y-223.52
X189.23Y-231.14
X189.237Y-238.718
X189.237Y-246.337
X190.5Y-234.95
X191.77Y-135.89
X191.77Y-151.13
X191.77Y-160.02
X191.77Y-167.64
X191.77Y-223.52
X191.77Y-231.14
X191.778Y-238.718
X191.778Y-246.337
X193.04Y-234.95
X194.31Y-135.89
X194.31Y-151.13
X194.31Y-160.02
X194.31Y-167.64
X194.31Y-223.52
X194.31Y-231.14
X194.317Y-238.718
X194.317Y-246.337
X195.58Y-234.95
X196.85Y-135.89
X196.85Y-151.13
X196.85Y-160.02
X196.85Y-167.64
X196.85Y-223.52
X196.85Y-231.14
X199.39Y-135.89
X199.39Y-151.13
X200.66Y-161.29
X200.66Y-166.29
X200.66Y-224.79
X200.66Y-229.79
X201.93Y-135.89
X201.93Y-151.13
X204.47Y-135.89
X204.47Y-151.13
X204.47Y-160.02
X204.47Y-167.64
X204.47Y-171.45
X204.47Y-223.52
X204.47Y-231.14
X205.748Y-234.95
X207.01Y-135.89
X207.01Y-151.13
X207.01Y-160.02
X207.01Y-167.64
X207.01Y-171.45
X207.01Y-223.52
X207.01Y-231.14
X207.025Y-238.718
X207.025Y-246.337
X208.287Y-234.95
X209.55Y-135.89
X209.55Y-151.13
X209.55Y-160.02
X209.55Y-167.64
X209.55Y-171.45
X209.55Y-223.52
X209.55Y-231.14
X209.565Y-238.718
X209.565Y-246.337
X210.827Y-234.95
X212.09Y-135.89
X212.09Y-151.13
X212.09Y-160.02
X212.09Y-167.64
X212.09Y-171.45
X212.09Y-223.52
X212.09Y-231.14
X212.105Y-238.718
X212.105Y-246.337
X213.367Y-234.95
X214.63Y-135.89
X214.63Y-151.13
X214.63Y-160.02
X214.63Y-167.64
X214.63Y-171.45
X214.63Y-223.52
X214.63Y-231.14
X214.645Y-238.718
X214.645Y-246.337
X215.907Y-234.95
X217.17Y-135.89
X217.17Y-151.13
X217.17Y-160.02
X217.17Y-167.64
X217.17Y-171.45
X217.17Y-223.52
X217.17Y-231.14
X217.185Y-238.718
X217.185Y-246.337
X218.447Y-234.95
X219.71Y-135.89
X219.71Y-151.13
X219.71Y-160.02
X219.71Y-167.64
X219.71Y-171.45
X219.71Y-223.52
X219.71Y-231.14
X219.725Y-238.718
X219.725Y-246.337
X220.987Y-234.95
X222.25Y-135.89
X222.25Y-151.13
X222.25Y-160.02
X222.25Y-167.64
X222.25Y-171.45
X222.25Y-223.52
X222.25Y-231.14
X222.265Y-238.718
X222.265Y-246.337
X223.528Y-234.95
X223.532Y-191.727
X223.532Y-199.347
X224.79Y-135.89
X224.79Y-151.13
X224.79Y-160.02
X224.79Y-167.64
X224.79Y-171.45
X224.79Y-223.52
X224.79Y-231.14
X224.805Y-238.718
X224.805Y-246.337
X226.067Y-234.95
X226.072Y-191.727
X226.072Y-199.347
X227.33Y-135.89
X227.33Y-151.13
X227.33Y-160.02
X227.33Y-167.64
X227.33Y-223.52
X227.33Y-231.14
T4
X72.39Y-134.62
X72.39Y-137.16
X76.835Y-134.62
X76.835Y-137.16
X81.28Y-134.62
X81.28Y-137.16
X88.9Y-134.62
X88.9Y-137.16
X93.345Y-134.62
X93.345Y-137.16
X97.79Y-134.62
X97.79Y-137.16
X102.235Y-134.62
X102.235Y-137.16
X106.68Y-134.62
X106.68Y-137.16
X111.125Y-134.62
X111.125Y-137.16
X115.57Y-134.62
X115.57Y-137.16
X120.015Y-134.62
X120.015Y-137.16
X124.46Y-134.62
X124.46Y-137.16
X124.46Y-148.59
X124.46Y-151.13
X128.0Y-241.3
X128.905Y-134.62
X128.905Y-137.16
X128.905Y-148.59
X128.905Y-151.13
X130.5Y-246.3
X133.0Y-241.3
X133.35Y-134.62
X133.35Y-137.16
X133.35Y-148.59
X133.35Y-151.13
X137.795Y-134.62
X137.795Y-137.16
X137.795Y-148.59
X137.795Y-151.13
X142.24Y-134.62
X142.24Y-137.16
X142.24Y-148.59
X142.24Y-151.13
X146.685Y-134.62
X146.685Y-137.16
X146.685Y-148.59
X146.685Y-151.13
X151.13Y-134.62
X151.13Y-137.16
X151.13Y-148.59
X151.13Y-151.13
X155.575Y-134.62
X155.575Y-137.16
X155.575Y-148.59
X155.575Y-151.13
T5
X58.42Y-180.34
X58.42Y-182.88
X58.42Y-185.42
X58.42Y-187.96
X58.42Y-190.5
X58.42Y-193.04
X58.42Y-195.58
X58.42Y-198.12
X58.42Y-200.66
X58.42Y-203.2
X58.42Y-205.74
X58.42Y-208.28
X58.42Y-210.82
X58.42Y-213.36
X58.42Y-215.9
X58.42Y-218.44
X58.42Y-220.98
X58.42Y-223.52
X58.42Y-226.06
X58.42Y-228.6
X60.96Y-180.34
X60.96Y-182.88
X60.96Y-185.42
X60.96Y-187.96
X60.96Y-190.5
X60.96Y-193.04
X60.96Y-195.58
X60.96Y-198.12
X60.96Y-200.66
X60.96Y-203.2
X60.96Y-205.74
X60.96Y-208.28
X60.96Y-210.82
X60.96Y-213.36
X60.96Y-215.9
X60.96Y-218.44
X60.96Y-220.98
X60.96Y-223.52
X60.96Y-226.06
X60.96Y-228.6
X78.74Y-241.3
X78.74Y-243.84
X78.74Y-246.38
T6
X56.44Y-241.59
X56.44Y-246.09
X62.94Y-241.59
X62.94Y-246.09
X173.28Y-187.27
X173.28Y-191.77
X173.28Y-200.26
X173.28Y-204.76
X179.78Y-187.27
X179.78Y-191.77
X179.78Y-200.26
X179.78Y-204.76
X189.23Y-187.27
X189.23Y-191.77
X189.23Y-200.26
X189.23Y-204.76
X195.73Y-187.27
X195.73Y-191.77
X195.73Y-200.26
X195.73Y-204.76
X205.18Y-187.27
X205.18Y-191.77
X205.18Y-200.26
X205.18Y-204.76
X211.68Y-187.27
X211.68Y-191.77
X211.68Y-200.26
X211.68Y-204.76
T7
X46.99Y-130.81
X46.99Y-246.38
X236.22Y-130.81
X236.22Y-246.38
T5
G00X55.947Y-135.985
M15
G01X55.947Y-137.985
M16
G05
G00X61.647Y-133.985
M15
G01X59.648Y-133.985
M16
G05
G00X61.647Y-139.985
M15
G01X59.648Y-139.985
M16
G05
M30
